<svg xmlns="http://www.w3.org/2000/svg" viewBox="0 0 135.91 32.87"><defs><style>.cls-1{fill:#404041;}</style></defs><title>Asset 5</title><g id="Layer_2" data-name="Layer 2"><g id="Layer_1-2" data-name="Layer 1"><path class="cls-1" d="M16.9,23.37q0,.24-.69.24H14.68a8.2,8.2,0,0,0-3.51.78.93.93,0,0,1-.24.07c-.2,0-.31-.21-.34-.61a4.8,4.8,0,0,0-.1-.86,4.69,4.69,0,0,1-3.61,1.47,6.28,6.28,0,0,1-4.94-2.22A8.22,8.22,0,0,1,0,16.62,7.9,7.9,0,0,1,2,11,6.76,6.76,0,0,1,7.19,8.89a4.29,4.29,0,0,1,3.44,1.57V5.69a13,13,0,0,0-.27-3.63c-.19-.37-.79-.55-1.81-.53-.59,0-.89-.08-.89-.24s.14-.23.42-.23a19.48,19.48,0,0,0,6-.92A2.27,2.27,0,0,1,14.64,0c.26,0,.38.27.38.82V22a1.28,1.28,0,0,0,.17.78c.16.21.56.3,1.19.28C16.73,23.07,16.9,23.16,16.9,23.37ZM10.63,20.3V12.88a4,4,0,0,0-.52-2.29A2.08,2.08,0,0,0,8.3,9.64C6.1,9.64,5,12.06,5,16.9a12,12,0,0,0,.84,5,2.59,2.59,0,0,0,2.34,1.77,2.28,2.28,0,0,0,1.67-.8A3.62,3.62,0,0,0,10.63,20.3Z"/><path class="cls-1" d="M30.69,19.86a3.78,3.78,0,0,1-.88,2,5.91,5.91,0,0,1-5,2.62,7.72,7.72,0,0,1-5.65-2.18A7.5,7.5,0,0,1,17,16.69a7.74,7.74,0,0,1,2.15-5.57,7.1,7.1,0,0,1,5.35-2.23,6.94,6.94,0,0,1,3.71.95,4.92,4.92,0,0,1,2.22,3,11.74,11.74,0,0,1,.2,1.46q-.78.09-6.3.14c-.57,0-1.29,0-2.15.07-.07.81-.1,1.5-.1,2.07q0,4,1.67,5.63a3.31,3.31,0,0,0,2.42,1,3.86,3.86,0,0,0,2.3-.81,5.24,5.24,0,0,0,1.68-2.12c.18-.43.33-.64.45-.64S30.69,19.72,30.69,19.86Zm-4.29-6A10.4,10.4,0,0,0,26,10.28a1.43,1.43,0,0,0-1.43-1c-1.38,0-2.18,1.54-2.38,4.63H26.4Z"/><path class="cls-1" d="M46.09,22.21c0,.19-.18.44-.55.76a5.12,5.12,0,0,1-3.61,1.35,2.9,2.9,0,0,1-2-.58,3.55,3.55,0,0,1-.84-2.11,4.66,4.66,0,0,1-4.19,2.79,3.16,3.16,0,0,1-2.37-.92,3.24,3.24,0,0,1-.9-2.38q0-4.29,7.36-5.08v-.71a20.48,20.48,0,0,0-.24-4.19l0-.17a2.23,2.23,0,0,0-2.42-1.7,2.54,2.54,0,0,0-1.81.64,1.82,1.82,0,0,0-.68,1.26c0,.23.27.37.82.41.82.07,1.22.57,1.22,1.5a1.66,1.66,0,0,1-.49,1.24,1.73,1.73,0,0,1-1.28.5,2.23,2.23,0,0,1-1.61-.6,2,2,0,0,1-.63-1.51,3.39,3.39,0,0,1,1.46-2.66,5.89,5.89,0,0,1,3.85-1.19q3.54,0,4.94,1.26c.75.7,1.12,1.93,1.12,3.68v5.82c0,1.14,0,1.8,0,2,.11.95.44,1.43,1,1.43a2.4,2.4,0,0,0,1.44-.82c.11-.11.2-.17.27-.17A.15.15,0,0,1,46.09,22.21ZM39,18.16V16.49q-3.3.65-3.3,3.74c0,1.59.54,2.39,1.63,2.39a1.33,1.33,0,0,0,1.29-1A11,11,0,0,0,39,18.16Z"/><path class="cls-1" d="M58,11.41A2.28,2.28,0,0,1,57.43,13a1.94,1.94,0,0,1-1.5.63c-1.22,0-1.84-.57-1.84-1.7a1.89,1.89,0,0,1,.45-1.16.47.47,0,0,0,.1-.24c0-.2-.15-.31-.44-.31-.76,0-1.34.6-1.75,1.8a22,22,0,0,0-.33,5v5.47a.87.87,0,0,0,.92,1c.36,0,.79,0,1.29,0,.25,0,.38.1.38.24s-.11.27-.31.27H45.48c-.25,0-.38-.07-.38-.22s.16-.22.48-.22a3.38,3.38,0,0,0,1.68-.29c.2-.17.29-.68.29-1.51l0-9.18A2.86,2.86,0,0,0,47.2,11a2,2,0,0,0-1.45-.55c-.59,0-.93-.07-1-.09s-.12-.1-.12-.23.09-.19.28-.19h1.26a16.71,16.71,0,0,0,5.65-1.09A6.74,6.74,0,0,1,52,10.46v1.43A5.82,5.82,0,0,1,53.4,9.57a2.89,2.89,0,0,1,2-.68,2.59,2.59,0,0,1,1.89.72A2.4,2.4,0,0,1,58,11.41Z"/><path class="cls-1" d="M79.33,23.37c0,.16-.22.24-.68.24H77.12a8.2,8.2,0,0,0-3.51.78l-.24.07c-.2,0-.32-.21-.34-.61a4.8,4.8,0,0,0-.1-.86,4.69,4.69,0,0,1-3.61,1.47,6.27,6.27,0,0,1-4.94-2.22,8.17,8.17,0,0,1-1.94-5.62,7.94,7.94,0,0,1,2-5.6,6.78,6.78,0,0,1,5.21-2.13,4.31,4.31,0,0,1,3.45,1.57V5.69a12.81,12.81,0,0,0-.28-3.63c-.18-.37-.78-.55-1.8-.53-.59,0-.89-.08-.89-.24s.14-.23.41-.23a19.54,19.54,0,0,0,6-.92A2.27,2.27,0,0,1,77.08,0c.25,0,.38.27.38.82V22a1.28,1.28,0,0,0,.17.78c.16.21.56.3,1.19.28Q79.33,23.06,79.33,23.37ZM73.07,20.3V12.88a4.1,4.1,0,0,0-.52-2.29,2.09,2.09,0,0,0-1.82-.95q-3.28,0-3.28,7.26a12,12,0,0,0,.83,5,2.6,2.6,0,0,0,2.35,1.77,2.24,2.24,0,0,0,1.66-.8A3.58,3.58,0,0,0,73.07,20.3Z"/><path class="cls-1" d="M88.46,23.81q0,.24-.3.24H79.57c-.27,0-.41-.07-.41-.22s.26-.17.79-.19c.77,0,1.22-.11,1.36-.26s.2-.59.2-1.35V12.21a3.07,3.07,0,0,0-.22-1.56c-.15-.17-.59-.26-1.34-.26a6,6,0,0,1-.84,0q-.12,0-.12-.24t.51-.24a16.76,16.76,0,0,0,6.41-1.16c0,.27.1,1,.17,2.25V21.7c0,.93.08,1.48.25,1.63a3.51,3.51,0,0,0,1.76.24C88.34,23.57,88.46,23.65,88.46,23.81ZM86.08,2.21a2.26,2.26,0,0,1-.66,1.64,2.31,2.31,0,0,1-3.24,0,2.15,2.15,0,0,1-.67-1.63A2,2,0,0,1,82.18.68a2.4,2.4,0,0,1,1.7-.61,2.15,2.15,0,0,1,1.57.61A2.05,2.05,0,0,1,86.08,2.21Z"/><path class="cls-1" d="M103.45,22.21c0,.19-.18.44-.54.76a5.14,5.14,0,0,1-3.62,1.35,2.9,2.9,0,0,1-2-.58,3.55,3.55,0,0,1-.84-2.11,4.66,4.66,0,0,1-4.19,2.79,3.13,3.13,0,0,1-2.36-.92A3.21,3.21,0,0,1,89,21.12q0-4.29,7.36-5.08v-.71a20.48,20.48,0,0,0-.24-4.19l0-.17a2.23,2.23,0,0,0-2.42-1.7,2.54,2.54,0,0,0-1.81.64,1.82,1.82,0,0,0-.68,1.26c0,.23.28.37.82.41q1.23.11,1.23,1.5a1.67,1.67,0,0,1-.5,1.24,1.72,1.72,0,0,1-1.27.5,2.25,2.25,0,0,1-1.62-.6,2,2,0,0,1-.63-1.51,3.42,3.42,0,0,1,1.46-2.66,5.89,5.89,0,0,1,3.85-1.19q3.54,0,4.94,1.26c.75.7,1.12,1.93,1.12,3.68v5.82c0,1.14,0,1.8,0,2,.11.95.44,1.43,1,1.43a2.4,2.4,0,0,0,1.43-.82c.11-.11.2-.17.27-.17A.15.15,0,0,1,103.45,22.21Zm-7.12-4.05V16.49q-3.3.65-3.3,3.74c0,1.59.54,2.39,1.63,2.39a1.34,1.34,0,0,0,1.3-1A11.1,11.1,0,0,0,96.33,18.16Z"/><path class="cls-1" d="M115.37,11.41a2.28,2.28,0,0,1-.58,1.62,1.93,1.93,0,0,1-1.5.63c-1.22,0-1.83-.57-1.83-1.7a1.87,1.87,0,0,1,.44-1.16.4.4,0,0,0,.1-.24c0-.2-.15-.31-.44-.31q-1.14,0-1.74,1.8a21.17,21.17,0,0,0-.34,5v5.47a.88.88,0,0,0,.92,1c.36,0,.79,0,1.29,0,.25,0,.38.1.38.24s-.1.27-.31.27h-8.92c-.25,0-.38-.07-.38-.22s.16-.22.48-.22a3.38,3.38,0,0,0,1.68-.29c.2-.17.29-.68.29-1.51l0-9.18a2.86,2.86,0,0,0-.32-1.59,2,2,0,0,0-1.45-.55c-.59,0-.93-.07-1-.09s-.11-.1-.11-.23.09-.19.27-.19h1.26a16.66,16.66,0,0,0,5.65-1.09,6.24,6.24,0,0,1,.17,1.57v1.43a5.93,5.93,0,0,1,1.42-2.32,2.89,2.89,0,0,1,2-.68,2.59,2.59,0,0,1,1.89.72A2.4,2.4,0,0,1,115.37,11.41Z"/><path class="cls-1" d="M129.92,9.5c0,.16,0,.26-.14.29a4.17,4.17,0,0,1-.95.05,3,3,0,0,0-1.09.11l-.21.37-.41,1.19c-.18.55-.59,1.65-1.22,3.31L124.4,19Q121,28.45,120,30.42c-.82,1.63-1.86,2.45-3.13,2.45a2.38,2.38,0,0,1-1.76-.65,2.26,2.26,0,0,1-.66-1.7c0-1.11.61-1.67,1.84-1.67a1.28,1.28,0,0,1,1,.41,4.74,4.74,0,0,1,.58.95.76.76,0,0,0,.65.35c.45,0,.89-.38,1.31-1.14a32.77,32.77,0,0,0,1.72-4.31c-.18-.37-.53-1.17-1-2.42q-1-2.6-2.73-6.78-.41-1-1.84-4.46a3.47,3.47,0,0,0-.81-1.44,3.65,3.65,0,0,0-1.57-.27c-.28,0-.41-.08-.41-.24s.13-.23.41-.23h8.34c.25,0,.38.08.38.23s-.34.3-1,.28-1,.12-1,.44a3.24,3.24,0,0,0,.28,1.06,9.87,9.87,0,0,1,.4,1.12q1.68,4.64,2.73,7,3.16-8.07,3.17-9.2c0-.25-.26-.37-.79-.37-1.09,0-1.63-.1-1.63-.31s.14-.3.41-.3l.68,0a16.42,16.42,0,0,0,1.77.07l1,0c.57,0,.95-.05,1.14-.05h.2C129.82,9.27,129.92,9.35,129.92,9.5Z"/><path class="cls-1" d="M135.91,23.81a4.88,4.88,0,0,1-2.42,4.6,5.94,5.94,0,0,1-2.89.92c-.16,0-.24-.06-.24-.17s.09-.19.27-.24q3.88-.89,3.89-4a3,3,0,0,0-1.13-2.56c0,1.29-.57,1.94-1.7,1.94a2,2,0,0,1-1.55-.63,2.33,2.33,0,0,1-.6-1.68,2.55,2.55,0,0,1,.77-1.93,2.81,2.81,0,0,1,2-.73,3.15,3.15,0,0,1,2.6,1.21A5,5,0,0,1,135.91,23.81Z"/></g></g></svg>